# xmcd
#
# Track frame offsets:
#	150
#	11625
#	24525
#	42045
#	53930
#	69472
#	83222
#	96020
#	109790
#	120637
#	141102
#	153272
#	164682
#	178240
#
# Disc length: 2575 seconds
#
# Revision: 6
# Processed by: cddbd v1.5.1PL0 Copyright (c) Steve Scherf et al.
# Submitted via: audiograbber 1.83.01
#
DISCID=b70a0d0e,bb0a0d0e
DTITLE=Various Artist - This Is Soul 2 - Vol. 1
DYEAR=1900
DGENRE=Blues
TTITLE0=Drifters - Up On The Roof
TTITLE1=Mary Wells - My Guy
TTITLE2=Percy Sledge - Try a little Tenderness
TTITLE3=Sam and Dave - Respect
TTITLE4=Dobie Gray - Feelings
TTITLE5=Martha Reeves - Nowhere To Run To
TTITLE6=Bob and Earl - Harlem Shuffle
TTITLE7=Ben E King - Stand By Me
TTITLE8=Sam and Dave - Sweet Soul Music
TTITLE9=Percy Sledge - You Send Me
TTITLE10=Martha Reeves - Quicksand
TTITLE11=Brook Benton - So Many Ways
TTITLE12=George McCrae - I Can't Leave You Alone
TTITLE13=Ben E King - Supernatural Thing
EXTD=
EXTT0=
EXTT1=
EXTT2=
EXTT3=
EXTT4=
EXTT5=
EXTT6=
EXTT7=
EXTT8=
EXTT9=
EXTT10=
EXTT11=
EXTT12=
EXTT13=
PLAYORDER=
